<mxfile host="app.diagrams.net" modified="2022-04-10T06:25:16.936Z" agent="5.0 (Windows NT 10.0; Win64; x64) AppleWebKit/537.36 (KHTML, like Gecko) Chrome/100.0.4896.75 Safari/537.36" etag="-oOkDjfA9X8NmG23JBuG" version="17.4.2" type="github">
  <diagram id="BEMWs7EiU-5zdooSxy41" name="Page-1">
    <mxGraphModel dx="1038" dy="547" grid="0" gridSize="10" guides="1" tooltips="1" connect="1" arrows="1" fold="1" page="1" pageScale="1" pageWidth="827" pageHeight="1169" math="0" shadow="0">
      <root>
        <mxCell id="0" />
        <mxCell id="1" parent="0" />
        <mxCell id="kSKVR7nEdQFuoGYjWsU_-1" value="&lt;font style=&quot;font-size: 24px&quot;&gt;free&lt;/font&gt;" style="rounded=0;whiteSpace=wrap;html=1;" vertex="1" parent="1">
          <mxGeometry x="162" y="165" width="120" height="60" as="geometry" />
        </mxCell>
        <mxCell id="kSKVR7nEdQFuoGYjWsU_-2" value="&lt;font style=&quot;font-size: 24px&quot;&gt;len&lt;/font&gt;" style="rounded=0;whiteSpace=wrap;html=1;" vertex="1" parent="1">
          <mxGeometry x="162" y="225" width="120" height="60" as="geometry" />
        </mxCell>
        <mxCell id="kSKVR7nEdQFuoGYjWsU_-10" value="" style="edgeStyle=orthogonalEdgeStyle;rounded=0;orthogonalLoop=1;jettySize=auto;html=1;" edge="1" parent="1" source="kSKVR7nEdQFuoGYjWsU_-3" target="kSKVR7nEdQFuoGYjWsU_-4">
          <mxGeometry relative="1" as="geometry" />
        </mxCell>
        <mxCell id="kSKVR7nEdQFuoGYjWsU_-3" value="&lt;font style=&quot;font-size: 24px&quot;&gt;buf&lt;/font&gt;" style="rounded=0;whiteSpace=wrap;html=1;" vertex="1" parent="1">
          <mxGeometry x="162" y="282" width="120" height="60" as="geometry" />
        </mxCell>
        <mxCell id="kSKVR7nEdQFuoGYjWsU_-4" value="&#39;h&#39;" style="rounded=0;whiteSpace=wrap;html=1;" vertex="1" parent="1">
          <mxGeometry x="335" y="292.5" width="67" height="39.5" as="geometry" />
        </mxCell>
        <mxCell id="kSKVR7nEdQFuoGYjWsU_-5" value="&#39;e&#39;" style="rounded=0;whiteSpace=wrap;html=1;" vertex="1" parent="1">
          <mxGeometry x="402" y="292.5" width="67" height="39" as="geometry" />
        </mxCell>
        <mxCell id="kSKVR7nEdQFuoGYjWsU_-6" value="&#39;l&#39;" style="rounded=0;whiteSpace=wrap;html=1;" vertex="1" parent="1">
          <mxGeometry x="469" y="292.5" width="67" height="39" as="geometry" />
        </mxCell>
        <mxCell id="kSKVR7nEdQFuoGYjWsU_-7" value="&#39;o&#39;" style="rounded=0;whiteSpace=wrap;html=1;" vertex="1" parent="1">
          <mxGeometry x="603" y="292.5" width="67" height="39" as="geometry" />
        </mxCell>
        <mxCell id="kSKVR7nEdQFuoGYjWsU_-8" value="&#39;l&#39;" style="rounded=0;whiteSpace=wrap;html=1;" vertex="1" parent="1">
          <mxGeometry x="536" y="292.5" width="67" height="39" as="geometry" />
        </mxCell>
        <mxCell id="kSKVR7nEdQFuoGYjWsU_-9" value="&#39;\0&#39;" style="rounded=0;whiteSpace=wrap;html=1;" vertex="1" parent="1">
          <mxGeometry x="670" y="292.5" width="67" height="39" as="geometry" />
        </mxCell>
        <mxCell id="kSKVR7nEdQFuoGYjWsU_-12" value="6" style="text;html=1;strokeColor=none;fillColor=none;align=center;verticalAlign=middle;whiteSpace=wrap;rounded=0;fontSize=24;" vertex="1" parent="1">
          <mxGeometry x="280" y="240" width="60" height="30" as="geometry" />
        </mxCell>
        <mxCell id="kSKVR7nEdQFuoGYjWsU_-14" value="0" style="text;html=1;strokeColor=none;fillColor=none;align=center;verticalAlign=middle;whiteSpace=wrap;rounded=0;fontSize=24;" vertex="1" parent="1">
          <mxGeometry x="280" y="180" width="60" height="30" as="geometry" />
        </mxCell>
      </root>
    </mxGraphModel>
  </diagram>
</mxfile>
